<?xml version="1.0" encoding="UTF-8"?>
<!DOCTYPE svg PUBLIC "-//W3C//DTD SVG 1.1//EN" "http://www.w3.org/Graphics/SVG/1.1/DTD/svg11.dtd">
<!-- Creator: CorelDRAW -->
<?xml-stylesheet href="logo run new.css" type="text/css"?>
<svg xmlns="http://www.w3.org/2000/svg" xml:space="preserve" width="42.3332mm" height="42.3332mm" version="1.1" style="shape-rendering:geometricPrecision; text-rendering:geometricPrecision; image-rendering:optimizeQuality; fill-rule:evenodd; clip-rule:evenodd"
viewBox="0 0 4233.32 4233.32"
 xmlns:xlink="http://www.w3.org/1999/xlink"
 xmlns:xodm="http://www.corel.com/coreldraw/odm/2003">
 <g id="Layer_x0020_1">
  <metadata id="CorelCorpID_0Corel-Layer"/>
  <path class="fil0" d="M618.93 1590.81l169.45 0 58.1 0 55.54 0 24.43 0 209.7 0 475.03 -475.03 282.08 0c36.96,-91.03 126.26,-155.27 230.61,-155.27 137.4,0 248.82,111.41 248.82,248.82 0,137.41 -111.42,248.82 -248.82,248.82 -104.35,0 -193.65,-64.22 -230.61,-155.28l-212.76 0 -287.92 287.94 1019.13 0c14.42,-35.55 36.79,-66.98 64.95,-92.09l0.3 -0.27c3.26,-2.91 6.59,-5.73 10,-8.44l0.27 -0.23c1.1,-0.88 2.2,-1.74 3.32,-2.59l0.46 -0.36c3.29,-2.53 6.67,-4.97 10.09,-7.34l0.88 -0.62c1,-0.68 2.03,-1.38 3.06,-2.06l1.02 -0.67c3.32,-2.2 6.72,-4.29 10.16,-6.33l1.14 -0.66 2.85 -1.63 1.77 -1 2.88 -1.56 1.25 -0.67c2.07,-1.09 4.15,-2.15 6.25,-3.21l1.02 -0.49c1.03,-0.51 2.1,-1 3.15,-1.5l1.58 -0.74 2.98 -1.35 2.22 -0.97c1.37,-0.59 2.72,-1.18 4.1,-1.74l2.85 -1.17 2.79 -1.09 2.15 -0.8 2.77 -1.02 2.63 -0.94 2.44 -0.85c1.51,-0.49 3.06,-1.01 4.6,-1.48l2.73 -0.83 2.36 -0.7 2.78 -0.8 2.76 -0.75 2.48 -0.63 0.15 -0.05c1.52,-0.39 3.05,-0.77 4.56,-1.12l0.13 -0.04 2.28 -0.49 3.15 -0.68 2.44 -0.52c1.05,-0.21 2.11,-0.41 3.17,-0.6l2.26 -0.43c1.7,-0.27 3.41,-0.57 5.09,-0.83l2.26 -0.32c1.09,-0.17 2.15,-0.32 3.23,-0.45l2.56 -0.34 3.26 -0.36 2.33 -0.24c1.79,-0.2 3.56,-0.35 5.37,-0.49l1.24 -0.09c1.44,-0.09 2.86,-0.19 4.3,-0.26l2.46 -0.12 3.3 -0.13 2.54 -0.07c1.41,-0.01 2.82,-0.04 4.26,-0.06l1.22 0c2.13,0 4.27,0.02 6.42,0.06 2.14,0.07 4.26,0.16 6.37,0.26 2.12,0.11 4.24,0.23 6.36,0.41 2.09,0.14 4.2,0.34 6.29,0.55 2.09,0.21 4.17,0.45 6.24,0.71 2.08,0.26 4.16,0.56 6.2,0.88 2.06,0.32 4.12,0.64 6.17,1 2.03,0.36 4.06,0.77 6.09,1.18 2.02,0.41 4.03,0.85 6.05,1.3 2,0.47 4,0.96 5.98,1.48 1.99,0.51 3.99,1.05 5.96,1.6 1.94,0.56 3.91,1.14 5.85,1.74l0 0.02c1.95,0.6 3.89,1.21 5.82,1.88 1.92,0.65 3.83,1.33 5.74,2.01l0 0.02c1.9,0.69 3.8,1.42 5.68,2.15 1.9,0.74 3.78,1.51 5.64,2.29l0 0.01c1.85,0.78 3.7,1.59 5.53,2.43 1.85,0.83 3.67,1.66 5.49,2.54l0 0.02c1.79,0.86 3.61,1.76 5.39,2.68 1.79,0.91 3.57,1.85 5.32,2.79l0 0.03c1.78,0.94 3.52,1.92 5.24,2.91l0 0.02c1.76,0.98 3.47,2.01 5.19,3.04 1.71,1.05 3.39,2.09 5.09,3.18 1.68,1.08 3.33,2.17 5,3.3 1.65,1.11 3.29,2.25 4.92,3.4 1.63,1.15 3.23,2.33 4.84,3.53 1.58,1.2 3.17,2.4 4.73,3.64 1.58,1.24 3.12,2.48 4.66,3.74 1.54,1.29 3.05,2.58 4.55,3.85 1.53,1.33 3,2.64 4.47,3.99 1.49,1.32 2.94,2.69 4.38,4.06 1.44,1.36 2.86,2.76 4.27,4.18 1.41,1.41 2.81,2.82 4.17,4.26l0 0.01c1.38,1.43 2.74,2.9 4.08,4.37 1.33,1.45 2.65,2.95 3.95,4.45l0 0.02c1.31,1.5 2.58,3.01 3.85,4.56 1.29,1.53 2.52,3.08 3.76,4.64 1.23,1.56 2.44,3.15 3.64,4.74 1.2,1.61 2.36,3.21 3.53,4.85 1.15,1.62 2.29,3.27 3.41,4.91 1.1,1.65 2.2,3.32 3.29,5.01 1.07,1.67 2.13,3.38 3.16,5.1 1.05,1.71 2.08,3.42 3.06,5.15 1.01,1.76 1.99,3.49 2.93,5.26 0.97,1.76 1.91,3.53 2.83,5.3l0 0.03c0.91,1.78 1.79,3.58 2.67,5.4 0.88,1.81 1.74,3.63 2.57,5.47 0.84,1.83 1.63,3.68 2.42,5.54 0.8,1.87 1.56,3.75 2.29,5.63 0.75,1.88 1.48,3.77 2.16,5.66 0.7,1.91 1.39,3.84 2.03,5.76 0.64,1.93 1.29,3.88 1.88,5.82 0.62,1.94 1.2,3.9 1.76,5.87 0.56,1.96 1.09,3.95 1.6,5.94 0.52,1.99 1.01,3.98 1.46,5.97 0.47,2.01 0.9,4.04 1.32,6.06 0.41,2.03 0.8,4.06 1.16,6.09 0.37,2.06 0.7,4.11 1.02,6.17 0.33,2.05 0.61,4.12 0.86,6.2 0.28,2.07 0.52,4.15 0.73,6.24 0.21,2.11 0.41,4.2 0.56,6.3 0.17,2.09 0.29,4.22 0.41,6.34 0.11,2.13 0.18,4.24 0.23,6.39 0.06,2.11 0.09,4.26 0.09,6.41 0,2.14 -0.03,4.29 -0.09,6.43 -0.05,2.14 -0.12,4.26 -0.23,6.38 -0.12,2.11 -0.26,4.23 -0.41,6.35 -0.15,2.09 -0.35,4.19 -0.56,6.29 -0.21,2.07 -0.45,4.17 -0.73,6.24 -0.25,2.08 -0.53,4.14 -0.86,6.21 -0.32,2.05 -0.65,4.11 -1.02,6.14 -0.36,2.05 -0.75,4.09 -1.16,6.09 -0.42,2.05 -0.85,4.05 -1.32,6.06 -0.45,2.02 -0.94,4 -1.46,5.99 -0.51,2 -1.04,3.96 -1.6,5.93 -0.56,1.97 -1.14,3.94 -1.76,5.89 -0.59,1.94 -1.24,3.86 -1.88,5.82 -0.64,1.92 -1.33,3.82 -2.03,5.73 -0.68,1.89 -1.41,3.8 -2.16,5.68 -0.73,1.89 -1.49,3.76 -2.29,5.61 -0.79,1.86 -1.58,3.71 -2.42,5.54 -0.83,1.87 -1.69,3.69 -2.57,5.49l0 0.01c-0.88,1.81 -1.76,3.6 -2.67,5.4 -0.92,1.79 -1.86,3.55 -2.83,5.32 -0.94,1.76 -1.92,3.51 -2.93,5.24 -0.98,1.73 -2.01,3.47 -3.06,5.18 -1.03,1.72 -2.09,3.4 -3.16,5.1 -1.08,1.66 -2.19,3.33 -3.29,4.98l0 0.02c-1.12,1.65 -2.26,3.3 -3.41,4.92 -1.17,1.62 -2.33,3.23 -3.53,4.84 -1.2,1.57 -2.41,3.16 -3.64,4.72 -1.24,1.58 -2.47,3.13 -3.76,4.67 -1.27,1.53 -2.54,3.06 -3.85,4.56 -1.3,1.49 -2.63,2.99 -3.95,4.47 -1.35,1.47 -2.7,2.93 -4.08,4.37 -1.36,1.45 -2.76,2.86 -4.17,4.27 -1.41,1.41 -2.83,2.79 -4.27,4.15l0 0.02c-1.44,1.38 -2.89,2.72 -4.38,4.07 -1.47,1.35 -2.94,2.66 -4.47,3.96 -1.5,1.3 -3.01,2.59 -4.55,3.85 -1.54,1.29 -3.08,2.53 -4.66,3.74l0 0.02c-1.56,1.22 -3.15,2.44 -4.73,3.62l0 0.03c-1.61,1.17 -3.21,2.35 -4.84,3.5 -1.63,1.15 -3.27,2.29 -4.92,3.42 -1.67,1.11 -3.32,2.2 -5,3.29 -1.7,1.08 -3.38,2.13 -5.09,3.17 -1.72,1.05 -3.43,2.06 -5.19,3.06 -1.72,1 -3.46,1.97 -5.24,2.94 -1.75,0.96 -3.53,1.9 -5.32,2.79 -1.78,0.93 -3.6,1.83 -5.39,2.7 -1.82,0.88 -3.67,1.74 -5.49,2.57 -1.83,0.82 -3.68,1.63 -5.53,2.41 -1.86,0.8 -3.74,1.55 -5.64,2.29 -1.88,0.76 -3.78,1.47 -5.68,2.17 -1.91,0.71 -3.82,1.36 -5.74,2.03 -1.93,0.65 -3.87,1.29 -5.82,1.88 -1.94,0.6 -3.91,1.18 -5.85,1.76 -1.97,0.56 -3.97,1.09 -5.96,1.6 -1.98,0.5 -3.98,0.99 -5.98,1.46 -2.02,0.47 -4.03,0.89 -6.05,1.3l0 0.03c-2.03,0.41 -4.06,0.79 -6.09,1.15 -2.05,0.37 -4.11,0.7 -6.17,1.03 -2.04,0.29 -4.12,0.59 -6.2,0.85 -2.07,0.29 -4.15,0.52 -6.24,0.73 -2.09,0.21 -4.2,0.39 -6.29,0.56 -2.12,0.15 -4.24,0.27 -6.36,0.41 -2.11,0.1 -4.23,0.16 -6.37,0.23 -2.15,0.04 -4.29,0.09 -6.42,0.09 -1.95,0 -3.9,-0.03 -5.84,-0.09l-1.69 -0.05c-1.37,-0.03 -2.75,-0.08 -4.08,-0.15l-1.96 -0.11c-1.82,-0.07 -3.62,-0.18 -5.44,-0.33l-0.16 0c-1.97,-0.15 -3.91,-0.32 -5.84,-0.53l-1.42 -0.15c-1.41,-0.16 -2.82,-0.31 -4.23,-0.47l-1.76 -0.23c-1.71,-0.23 -3.39,-0.47 -5.09,-0.71l-0.47 -0.08c-1.94,-0.3 -3.88,-0.62 -5.77,-0.95l-1.02 -0.18c-1.56,-0.29 -3.09,-0.6 -4.65,-0.9l-1.38 -0.27c-1.47,-0.32 -2.94,-0.65 -4.42,-0.97l-1.31 -0.29c-1.8,-0.41 -3.59,-0.86 -5.39,-1.32l-1.08 -0.29c-1.42,-0.36 -2.83,-0.75 -4.24,-1.16l-1.82 -0.52c-1.2,-0.33 -2.38,-0.68 -3.58,-1.04l-1.86 -0.58c-1.71,-0.53 -3.41,-1.06 -5.08,-1.65l-1.04 -0.36c-1.4,-0.47 -2.78,-0.96 -4.17,-1.46l-1.71 -0.64c-1.18,-0.42 -2.34,-0.87 -3.52,-1.33l-1.79 -0.7c-1.62,-0.63 -3.25,-1.3 -4.88,-1.98l-0.98 -0.44c-1.31,-0.55 -2.61,-1.12 -3.91,-1.71l-2 -0.9 -2.99 -1.41 -1.95 -0.92c-1.26,-0.62 -2.52,-1.24 -3.76,-1.88l-2.27 -1.15c-1.11,-0.58 -2.2,-1.17 -3.32,-1.76l-1.88 -1.03 -2.94 -1.64 -1.83 -1.06c-1.08,-0.62 -2.12,-1.24 -3.19,-1.86l-2.94 -1.79 -2.62 -1.65 -2.32 -1.47 -2.27 -1.52 -2.15 -1.44 -2.29 -1.59c-1.09,-0.78 -2.18,-1.56 -3.27,-2.32l-2.64 -1.92 -2.27 -1.73 -1.82 -1.38 -2.37 -1.86 -1.82 -1.46 -2.18 -1.8c-1.18,-0.96 -2.33,-1.94 -3.47,-2.92l-0.01 -0.02 -2.43 -2.1 -1.54 -1.37 -2.29 -2.09 -1.43 -1.33c-2.78,-2.6 -5.48,-5.23 -8.1,-7.94l-1.02 -1.03 -2.44 -2.55 -0.89 -0.98c-2.7,-2.89 -5.32,-5.87 -7.88,-8.87l-0.83 -1c-0.79,-0.94 -1.56,-1.88 -2.34,-2.82l-0.68 -0.88c-3.56,-4.42 -6.97,-8.98 -10.23,-13.65l-0.62 -0.9c-3.26,-4.72 -6.39,-9.6 -9.35,-14.56l-0.29 -0.54c-3.04,-5.13 -5.88,-10.42 -8.56,-15.78l0 -0.03c-2.71,-5.46 -5.23,-11.05 -7.53,-16.73l-1298.19 0 293.29 293.26 212.75 0c36.98,-91.03 126.28,-155.27 230.6,-155.27 137.43,0 248.81,111.41 248.81,248.81 0,137.42 -111.38,248.82 -248.81,248.82 -104.32,0 -193.62,-64.21 -230.6,-155.27l-282.09 0 -480.35 -480.35 -238.19 0 -240.57 0 -378.36 0 0 -920.86 618.93 0 0 118.74 0 615.04zm-485.96 -1590.81l1833.18 0 669.96 669.95 -2636.11 0 0 -536.98c0,-73.14 59.84,-132.97 132.97,-132.97zm2097.76 0l1869.63 0c73.12,0 132.96,59.83 132.96,132.97l0 1869.59 -2002.59 -2002.56zm2002.59 2267.14l0 1297.13 -614.99 -614.98 -614.07 -614.07 648.58 -648.56 580.48 580.48zm0 1561.72l0 271.48c0,73.14 -59.84,132.96 -132.96,132.96l-433.39 0 -669.95 -669.94 970.8 0 265.5 265.5zm-830.93 404.44l-1722.85 0 0 -1535.75 187.11 0 1535.74 1535.75zm-1909.94 0l-686.45 0 0 -669.94 686.45 0 0 669.94zm-873.52 0l-485.96 0c-73.13,0 -132.97,-59.82 -132.97,-132.96l0 -2135.37 618.93 0 0 2268.33z"/>
 </g>
</svg>
